G04 #@! TF.GenerationSoftware,KiCad,Pcbnew,(5.1.5-0-10_14)*
G04 #@! TF.CreationDate,2020-02-09T14:38:22-05:00*
G04 #@! TF.ProjectId,ButtonBoard,42757474-6f6e-4426-9f61-72642e6b6963,rev?*
G04 #@! TF.SameCoordinates,Original*
G04 #@! TF.FileFunction,Copper,L2,Bot*
G04 #@! TF.FilePolarity,Positive*
%FSLAX46Y46*%
G04 Gerber Fmt 4.6, Leading zero omitted, Abs format (unit mm)*
G04 Created by KiCad (PCBNEW (5.1.5-0-10_14)) date 2020-02-09 14:38:22*
%MOMM*%
%LPD*%
G04 APERTURE LIST*
%ADD10R,1.700000X1.700000*%
%ADD11O,1.700000X1.700000*%
%ADD12C,2.000000*%
%ADD13C,0.250000*%
%ADD14C,0.254000*%
G04 APERTURE END LIST*
D10*
X78740000Y-140970000D03*
D11*
X76200000Y-140970000D03*
X73660000Y-140970000D03*
X71120000Y-140970000D03*
X68580000Y-140970000D03*
X66040000Y-140970000D03*
D12*
X46990000Y-141660000D03*
X46990000Y-137160000D03*
X53490000Y-141660000D03*
X53490000Y-137160000D03*
X125880000Y-137160000D03*
X125880000Y-141660000D03*
X119380000Y-137160000D03*
X119380000Y-141660000D03*
X133350000Y-141660000D03*
X133350000Y-137160000D03*
X139850000Y-141660000D03*
X139850000Y-137160000D03*
X155090000Y-137160000D03*
X155090000Y-141660000D03*
X148590000Y-137160000D03*
X148590000Y-141660000D03*
X217170000Y-141660000D03*
X217170000Y-137160000D03*
X223670000Y-141660000D03*
X223670000Y-137160000D03*
D13*
X76200000Y-140970000D02*
X73660000Y-143510000D01*
X55340000Y-143510000D02*
X53490000Y-141660000D01*
X73660000Y-143510000D02*
X55340000Y-143510000D01*
D14*
G36*
X249530000Y-147930000D02*
G01*
X20980000Y-147930000D01*
X20980000Y-141498967D01*
X45355000Y-141498967D01*
X45355000Y-141821033D01*
X45417832Y-142136912D01*
X45541082Y-142434463D01*
X45720013Y-142702252D01*
X45947748Y-142929987D01*
X46215537Y-143108918D01*
X46513088Y-143232168D01*
X46828967Y-143295000D01*
X47151033Y-143295000D01*
X47466912Y-143232168D01*
X47764463Y-143108918D01*
X48032252Y-142929987D01*
X48259987Y-142702252D01*
X48438918Y-142434463D01*
X48562168Y-142136912D01*
X48625000Y-141821033D01*
X48625000Y-141498967D01*
X51855000Y-141498967D01*
X51855000Y-141821033D01*
X51917832Y-142136912D01*
X52041082Y-142434463D01*
X52220013Y-142702252D01*
X52447748Y-142929987D01*
X52715537Y-143108918D01*
X53013088Y-143232168D01*
X53328967Y-143295000D01*
X53651033Y-143295000D01*
X53966912Y-143232168D01*
X53981375Y-143226177D01*
X54776201Y-144021003D01*
X54799999Y-144050001D01*
X54828997Y-144073799D01*
X54915723Y-144144974D01*
X55047753Y-144215546D01*
X55191014Y-144259003D01*
X55302667Y-144270000D01*
X55302676Y-144270000D01*
X55339999Y-144273676D01*
X55377322Y-144270000D01*
X73622678Y-144270000D01*
X73660000Y-144273676D01*
X73697322Y-144270000D01*
X73697333Y-144270000D01*
X73808986Y-144259003D01*
X73952247Y-144215546D01*
X74084276Y-144144974D01*
X74200001Y-144050001D01*
X74223804Y-144020997D01*
X75833593Y-142411210D01*
X76053740Y-142455000D01*
X76346260Y-142455000D01*
X76633158Y-142397932D01*
X76903411Y-142285990D01*
X77146632Y-142123475D01*
X77278487Y-141991620D01*
X77300498Y-142064180D01*
X77359463Y-142174494D01*
X77438815Y-142271185D01*
X77535506Y-142350537D01*
X77645820Y-142409502D01*
X77765518Y-142445812D01*
X77890000Y-142458072D01*
X78454250Y-142455000D01*
X78613000Y-142296250D01*
X78613000Y-141097000D01*
X78867000Y-141097000D01*
X78867000Y-142296250D01*
X79025750Y-142455000D01*
X79590000Y-142458072D01*
X79714482Y-142445812D01*
X79834180Y-142409502D01*
X79944494Y-142350537D01*
X80041185Y-142271185D01*
X80120537Y-142174494D01*
X80179502Y-142064180D01*
X80215812Y-141944482D01*
X80228072Y-141820000D01*
X80226325Y-141498967D01*
X117745000Y-141498967D01*
X117745000Y-141821033D01*
X117807832Y-142136912D01*
X117931082Y-142434463D01*
X118110013Y-142702252D01*
X118337748Y-142929987D01*
X118605537Y-143108918D01*
X118903088Y-143232168D01*
X119218967Y-143295000D01*
X119541033Y-143295000D01*
X119856912Y-143232168D01*
X120154463Y-143108918D01*
X120422252Y-142929987D01*
X120649987Y-142702252D01*
X120828918Y-142434463D01*
X120952168Y-142136912D01*
X121015000Y-141821033D01*
X121015000Y-141498967D01*
X124245000Y-141498967D01*
X124245000Y-141821033D01*
X124307832Y-142136912D01*
X124431082Y-142434463D01*
X124610013Y-142702252D01*
X124837748Y-142929987D01*
X125105537Y-143108918D01*
X125403088Y-143232168D01*
X125718967Y-143295000D01*
X126041033Y-143295000D01*
X126356912Y-143232168D01*
X126654463Y-143108918D01*
X126922252Y-142929987D01*
X127149987Y-142702252D01*
X127328918Y-142434463D01*
X127452168Y-142136912D01*
X127515000Y-141821033D01*
X127515000Y-141498967D01*
X131715000Y-141498967D01*
X131715000Y-141821033D01*
X131777832Y-142136912D01*
X131901082Y-142434463D01*
X132080013Y-142702252D01*
X132307748Y-142929987D01*
X132575537Y-143108918D01*
X132873088Y-143232168D01*
X133188967Y-143295000D01*
X133511033Y-143295000D01*
X133826912Y-143232168D01*
X134124463Y-143108918D01*
X134392252Y-142929987D01*
X134619987Y-142702252D01*
X134798918Y-142434463D01*
X134922168Y-142136912D01*
X134985000Y-141821033D01*
X134985000Y-141498967D01*
X138215000Y-141498967D01*
X138215000Y-141821033D01*
X138277832Y-142136912D01*
X138401082Y-142434463D01*
X138580013Y-142702252D01*
X138807748Y-142929987D01*
X139075537Y-143108918D01*
X139373088Y-143232168D01*
X139688967Y-143295000D01*
X140011033Y-143295000D01*
X140326912Y-143232168D01*
X140624463Y-143108918D01*
X140892252Y-142929987D01*
X141119987Y-142702252D01*
X141298918Y-142434463D01*
X141422168Y-142136912D01*
X141485000Y-141821033D01*
X141485000Y-141498967D01*
X146955000Y-141498967D01*
X146955000Y-141821033D01*
X147017832Y-142136912D01*
X147141082Y-142434463D01*
X147320013Y-142702252D01*
X147547748Y-142929987D01*
X147815537Y-143108918D01*
X148113088Y-143232168D01*
X148428967Y-143295000D01*
X148751033Y-143295000D01*
X149066912Y-143232168D01*
X149364463Y-143108918D01*
X149632252Y-142929987D01*
X149859987Y-142702252D01*
X150038918Y-142434463D01*
X150162168Y-142136912D01*
X150225000Y-141821033D01*
X150225000Y-141498967D01*
X153455000Y-141498967D01*
X153455000Y-141821033D01*
X153517832Y-142136912D01*
X153641082Y-142434463D01*
X153820013Y-142702252D01*
X154047748Y-142929987D01*
X154315537Y-143108918D01*
X154613088Y-143232168D01*
X154928967Y-143295000D01*
X155251033Y-143295000D01*
X155566912Y-143232168D01*
X155864463Y-143108918D01*
X156132252Y-142929987D01*
X156359987Y-142702252D01*
X156538918Y-142434463D01*
X156662168Y-142136912D01*
X156725000Y-141821033D01*
X156725000Y-141498967D01*
X215535000Y-141498967D01*
X215535000Y-141821033D01*
X215597832Y-142136912D01*
X215721082Y-142434463D01*
X215900013Y-142702252D01*
X216127748Y-142929987D01*
X216395537Y-143108918D01*
X216693088Y-143232168D01*
X217008967Y-143295000D01*
X217331033Y-143295000D01*
X217646912Y-143232168D01*
X217944463Y-143108918D01*
X218212252Y-142929987D01*
X218439987Y-142702252D01*
X218618918Y-142434463D01*
X218742168Y-142136912D01*
X218805000Y-141821033D01*
X218805000Y-141498967D01*
X222035000Y-141498967D01*
X222035000Y-141821033D01*
X222097832Y-142136912D01*
X222221082Y-142434463D01*
X222400013Y-142702252D01*
X222627748Y-142929987D01*
X222895537Y-143108918D01*
X223193088Y-143232168D01*
X223508967Y-143295000D01*
X223831033Y-143295000D01*
X224146912Y-143232168D01*
X224444463Y-143108918D01*
X224712252Y-142929987D01*
X224939987Y-142702252D01*
X225118918Y-142434463D01*
X225242168Y-142136912D01*
X225305000Y-141821033D01*
X225305000Y-141498967D01*
X225242168Y-141183088D01*
X225118918Y-140885537D01*
X224939987Y-140617748D01*
X224712252Y-140390013D01*
X224444463Y-140211082D01*
X224146912Y-140087832D01*
X223831033Y-140025000D01*
X223508967Y-140025000D01*
X223193088Y-140087832D01*
X222895537Y-140211082D01*
X222627748Y-140390013D01*
X222400013Y-140617748D01*
X222221082Y-140885537D01*
X222097832Y-141183088D01*
X222035000Y-141498967D01*
X218805000Y-141498967D01*
X218742168Y-141183088D01*
X218618918Y-140885537D01*
X218439987Y-140617748D01*
X218212252Y-140390013D01*
X217944463Y-140211082D01*
X217646912Y-140087832D01*
X217331033Y-140025000D01*
X217008967Y-140025000D01*
X216693088Y-140087832D01*
X216395537Y-140211082D01*
X216127748Y-140390013D01*
X215900013Y-140617748D01*
X215721082Y-140885537D01*
X215597832Y-141183088D01*
X215535000Y-141498967D01*
X156725000Y-141498967D01*
X156662168Y-141183088D01*
X156538918Y-140885537D01*
X156359987Y-140617748D01*
X156132252Y-140390013D01*
X155864463Y-140211082D01*
X155566912Y-140087832D01*
X155251033Y-140025000D01*
X154928967Y-140025000D01*
X154613088Y-140087832D01*
X154315537Y-140211082D01*
X154047748Y-140390013D01*
X153820013Y-140617748D01*
X153641082Y-140885537D01*
X153517832Y-141183088D01*
X153455000Y-141498967D01*
X150225000Y-141498967D01*
X150162168Y-141183088D01*
X150038918Y-140885537D01*
X149859987Y-140617748D01*
X149632252Y-140390013D01*
X149364463Y-140211082D01*
X149066912Y-140087832D01*
X148751033Y-140025000D01*
X148428967Y-140025000D01*
X148113088Y-140087832D01*
X147815537Y-140211082D01*
X147547748Y-140390013D01*
X147320013Y-140617748D01*
X147141082Y-140885537D01*
X147017832Y-141183088D01*
X146955000Y-141498967D01*
X141485000Y-141498967D01*
X141422168Y-141183088D01*
X141298918Y-140885537D01*
X141119987Y-140617748D01*
X140892252Y-140390013D01*
X140624463Y-140211082D01*
X140326912Y-140087832D01*
X140011033Y-140025000D01*
X139688967Y-140025000D01*
X139373088Y-140087832D01*
X139075537Y-140211082D01*
X138807748Y-140390013D01*
X138580013Y-140617748D01*
X138401082Y-140885537D01*
X138277832Y-141183088D01*
X138215000Y-141498967D01*
X134985000Y-141498967D01*
X134922168Y-141183088D01*
X134798918Y-140885537D01*
X134619987Y-140617748D01*
X134392252Y-140390013D01*
X134124463Y-140211082D01*
X133826912Y-140087832D01*
X133511033Y-140025000D01*
X133188967Y-140025000D01*
X132873088Y-140087832D01*
X132575537Y-140211082D01*
X132307748Y-140390013D01*
X132080013Y-140617748D01*
X131901082Y-140885537D01*
X131777832Y-141183088D01*
X131715000Y-141498967D01*
X127515000Y-141498967D01*
X127452168Y-141183088D01*
X127328918Y-140885537D01*
X127149987Y-140617748D01*
X126922252Y-140390013D01*
X126654463Y-140211082D01*
X126356912Y-140087832D01*
X126041033Y-140025000D01*
X125718967Y-140025000D01*
X125403088Y-140087832D01*
X125105537Y-140211082D01*
X124837748Y-140390013D01*
X124610013Y-140617748D01*
X124431082Y-140885537D01*
X124307832Y-141183088D01*
X124245000Y-141498967D01*
X121015000Y-141498967D01*
X120952168Y-141183088D01*
X120828918Y-140885537D01*
X120649987Y-140617748D01*
X120422252Y-140390013D01*
X120154463Y-140211082D01*
X119856912Y-140087832D01*
X119541033Y-140025000D01*
X119218967Y-140025000D01*
X118903088Y-140087832D01*
X118605537Y-140211082D01*
X118337748Y-140390013D01*
X118110013Y-140617748D01*
X117931082Y-140885537D01*
X117807832Y-141183088D01*
X117745000Y-141498967D01*
X80226325Y-141498967D01*
X80225000Y-141255750D01*
X80066250Y-141097000D01*
X78867000Y-141097000D01*
X78613000Y-141097000D01*
X78593000Y-141097000D01*
X78593000Y-140843000D01*
X78613000Y-140843000D01*
X78613000Y-139643750D01*
X78867000Y-139643750D01*
X78867000Y-140843000D01*
X80066250Y-140843000D01*
X80225000Y-140684250D01*
X80228072Y-140120000D01*
X80215812Y-139995518D01*
X80179502Y-139875820D01*
X80120537Y-139765506D01*
X80041185Y-139668815D01*
X79944494Y-139589463D01*
X79834180Y-139530498D01*
X79714482Y-139494188D01*
X79590000Y-139481928D01*
X79025750Y-139485000D01*
X78867000Y-139643750D01*
X78613000Y-139643750D01*
X78454250Y-139485000D01*
X77890000Y-139481928D01*
X77765518Y-139494188D01*
X77645820Y-139530498D01*
X77535506Y-139589463D01*
X77438815Y-139668815D01*
X77359463Y-139765506D01*
X77300498Y-139875820D01*
X77278487Y-139948380D01*
X77146632Y-139816525D01*
X76903411Y-139654010D01*
X76633158Y-139542068D01*
X76346260Y-139485000D01*
X76053740Y-139485000D01*
X75766842Y-139542068D01*
X75496589Y-139654010D01*
X75253368Y-139816525D01*
X75046525Y-140023368D01*
X74930000Y-140197760D01*
X74813475Y-140023368D01*
X74606632Y-139816525D01*
X74363411Y-139654010D01*
X74093158Y-139542068D01*
X73806260Y-139485000D01*
X73513740Y-139485000D01*
X73226842Y-139542068D01*
X72956589Y-139654010D01*
X72713368Y-139816525D01*
X72506525Y-140023368D01*
X72390000Y-140197760D01*
X72273475Y-140023368D01*
X72066632Y-139816525D01*
X71823411Y-139654010D01*
X71553158Y-139542068D01*
X71266260Y-139485000D01*
X70973740Y-139485000D01*
X70686842Y-139542068D01*
X70416589Y-139654010D01*
X70173368Y-139816525D01*
X69966525Y-140023368D01*
X69850000Y-140197760D01*
X69733475Y-140023368D01*
X69526632Y-139816525D01*
X69283411Y-139654010D01*
X69013158Y-139542068D01*
X68726260Y-139485000D01*
X68433740Y-139485000D01*
X68146842Y-139542068D01*
X67876589Y-139654010D01*
X67633368Y-139816525D01*
X67426525Y-140023368D01*
X67310000Y-140197760D01*
X67193475Y-140023368D01*
X66986632Y-139816525D01*
X66743411Y-139654010D01*
X66473158Y-139542068D01*
X66186260Y-139485000D01*
X65893740Y-139485000D01*
X65606842Y-139542068D01*
X65336589Y-139654010D01*
X65093368Y-139816525D01*
X64886525Y-140023368D01*
X64724010Y-140266589D01*
X64612068Y-140536842D01*
X64555000Y-140823740D01*
X64555000Y-141116260D01*
X64612068Y-141403158D01*
X64724010Y-141673411D01*
X64886525Y-141916632D01*
X65093368Y-142123475D01*
X65336589Y-142285990D01*
X65606842Y-142397932D01*
X65893740Y-142455000D01*
X66186260Y-142455000D01*
X66473158Y-142397932D01*
X66743411Y-142285990D01*
X66986632Y-142123475D01*
X67193475Y-141916632D01*
X67310000Y-141742240D01*
X67426525Y-141916632D01*
X67633368Y-142123475D01*
X67876589Y-142285990D01*
X68146842Y-142397932D01*
X68433740Y-142455000D01*
X68726260Y-142455000D01*
X69013158Y-142397932D01*
X69283411Y-142285990D01*
X69526632Y-142123475D01*
X69733475Y-141916632D01*
X69850000Y-141742240D01*
X69966525Y-141916632D01*
X70173368Y-142123475D01*
X70416589Y-142285990D01*
X70686842Y-142397932D01*
X70973740Y-142455000D01*
X71266260Y-142455000D01*
X71553158Y-142397932D01*
X71823411Y-142285990D01*
X72066632Y-142123475D01*
X72273475Y-141916632D01*
X72390000Y-141742240D01*
X72506525Y-141916632D01*
X72713368Y-142123475D01*
X72956589Y-142285990D01*
X73226842Y-142397932D01*
X73513740Y-142455000D01*
X73640199Y-142455000D01*
X73345199Y-142750000D01*
X55654802Y-142750000D01*
X55056177Y-142151375D01*
X55062168Y-142136912D01*
X55125000Y-141821033D01*
X55125000Y-141498967D01*
X55062168Y-141183088D01*
X54938918Y-140885537D01*
X54759987Y-140617748D01*
X54532252Y-140390013D01*
X54264463Y-140211082D01*
X53966912Y-140087832D01*
X53651033Y-140025000D01*
X53328967Y-140025000D01*
X53013088Y-140087832D01*
X52715537Y-140211082D01*
X52447748Y-140390013D01*
X52220013Y-140617748D01*
X52041082Y-140885537D01*
X51917832Y-141183088D01*
X51855000Y-141498967D01*
X48625000Y-141498967D01*
X48562168Y-141183088D01*
X48438918Y-140885537D01*
X48259987Y-140617748D01*
X48032252Y-140390013D01*
X47764463Y-140211082D01*
X47466912Y-140087832D01*
X47151033Y-140025000D01*
X46828967Y-140025000D01*
X46513088Y-140087832D01*
X46215537Y-140211082D01*
X45947748Y-140390013D01*
X45720013Y-140617748D01*
X45541082Y-140885537D01*
X45417832Y-141183088D01*
X45355000Y-141498967D01*
X20980000Y-141498967D01*
X20980000Y-138295413D01*
X46034192Y-138295413D01*
X46129956Y-138559814D01*
X46419571Y-138700704D01*
X46731108Y-138782384D01*
X47052595Y-138801718D01*
X47371675Y-138757961D01*
X47676088Y-138652795D01*
X47850044Y-138559814D01*
X47945808Y-138295413D01*
X52534192Y-138295413D01*
X52629956Y-138559814D01*
X52919571Y-138700704D01*
X53231108Y-138782384D01*
X53552595Y-138801718D01*
X53871675Y-138757961D01*
X54176088Y-138652795D01*
X54350044Y-138559814D01*
X54445808Y-138295413D01*
X118424192Y-138295413D01*
X118519956Y-138559814D01*
X118809571Y-138700704D01*
X119121108Y-138782384D01*
X119442595Y-138801718D01*
X119761675Y-138757961D01*
X120066088Y-138652795D01*
X120240044Y-138559814D01*
X120335808Y-138295413D01*
X124924192Y-138295413D01*
X125019956Y-138559814D01*
X125309571Y-138700704D01*
X125621108Y-138782384D01*
X125942595Y-138801718D01*
X126261675Y-138757961D01*
X126566088Y-138652795D01*
X126740044Y-138559814D01*
X126835808Y-138295413D01*
X132394192Y-138295413D01*
X132489956Y-138559814D01*
X132779571Y-138700704D01*
X133091108Y-138782384D01*
X133412595Y-138801718D01*
X133731675Y-138757961D01*
X134036088Y-138652795D01*
X134210044Y-138559814D01*
X134305808Y-138295413D01*
X138894192Y-138295413D01*
X138989956Y-138559814D01*
X139279571Y-138700704D01*
X139591108Y-138782384D01*
X139912595Y-138801718D01*
X140231675Y-138757961D01*
X140536088Y-138652795D01*
X140710044Y-138559814D01*
X140805808Y-138295413D01*
X147634192Y-138295413D01*
X147729956Y-138559814D01*
X148019571Y-138700704D01*
X148331108Y-138782384D01*
X148652595Y-138801718D01*
X148971675Y-138757961D01*
X149276088Y-138652795D01*
X149450044Y-138559814D01*
X149545808Y-138295413D01*
X154134192Y-138295413D01*
X154229956Y-138559814D01*
X154519571Y-138700704D01*
X154831108Y-138782384D01*
X155152595Y-138801718D01*
X155471675Y-138757961D01*
X155776088Y-138652795D01*
X155950044Y-138559814D01*
X156045808Y-138295413D01*
X216214192Y-138295413D01*
X216309956Y-138559814D01*
X216599571Y-138700704D01*
X216911108Y-138782384D01*
X217232595Y-138801718D01*
X217551675Y-138757961D01*
X217856088Y-138652795D01*
X218030044Y-138559814D01*
X218125808Y-138295413D01*
X222714192Y-138295413D01*
X222809956Y-138559814D01*
X223099571Y-138700704D01*
X223411108Y-138782384D01*
X223732595Y-138801718D01*
X224051675Y-138757961D01*
X224356088Y-138652795D01*
X224530044Y-138559814D01*
X224625808Y-138295413D01*
X223670000Y-137339605D01*
X222714192Y-138295413D01*
X218125808Y-138295413D01*
X217170000Y-137339605D01*
X216214192Y-138295413D01*
X156045808Y-138295413D01*
X155090000Y-137339605D01*
X154134192Y-138295413D01*
X149545808Y-138295413D01*
X148590000Y-137339605D01*
X147634192Y-138295413D01*
X140805808Y-138295413D01*
X139850000Y-137339605D01*
X138894192Y-138295413D01*
X134305808Y-138295413D01*
X133350000Y-137339605D01*
X132394192Y-138295413D01*
X126835808Y-138295413D01*
X125880000Y-137339605D01*
X124924192Y-138295413D01*
X120335808Y-138295413D01*
X119380000Y-137339605D01*
X118424192Y-138295413D01*
X54445808Y-138295413D01*
X53490000Y-137339605D01*
X52534192Y-138295413D01*
X47945808Y-138295413D01*
X46990000Y-137339605D01*
X46034192Y-138295413D01*
X20980000Y-138295413D01*
X20980000Y-137222595D01*
X45348282Y-137222595D01*
X45392039Y-137541675D01*
X45497205Y-137846088D01*
X45590186Y-138020044D01*
X45854587Y-138115808D01*
X46810395Y-137160000D01*
X47169605Y-137160000D01*
X48125413Y-138115808D01*
X48389814Y-138020044D01*
X48530704Y-137730429D01*
X48612384Y-137418892D01*
X48624189Y-137222595D01*
X51848282Y-137222595D01*
X51892039Y-137541675D01*
X51997205Y-137846088D01*
X52090186Y-138020044D01*
X52354587Y-138115808D01*
X53310395Y-137160000D01*
X53669605Y-137160000D01*
X54625413Y-138115808D01*
X54889814Y-138020044D01*
X55030704Y-137730429D01*
X55112384Y-137418892D01*
X55124189Y-137222595D01*
X117738282Y-137222595D01*
X117782039Y-137541675D01*
X117887205Y-137846088D01*
X117980186Y-138020044D01*
X118244587Y-138115808D01*
X119200395Y-137160000D01*
X119559605Y-137160000D01*
X120515413Y-138115808D01*
X120779814Y-138020044D01*
X120920704Y-137730429D01*
X121002384Y-137418892D01*
X121014189Y-137222595D01*
X124238282Y-137222595D01*
X124282039Y-137541675D01*
X124387205Y-137846088D01*
X124480186Y-138020044D01*
X124744587Y-138115808D01*
X125700395Y-137160000D01*
X126059605Y-137160000D01*
X127015413Y-138115808D01*
X127279814Y-138020044D01*
X127420704Y-137730429D01*
X127502384Y-137418892D01*
X127514189Y-137222595D01*
X131708282Y-137222595D01*
X131752039Y-137541675D01*
X131857205Y-137846088D01*
X131950186Y-138020044D01*
X132214587Y-138115808D01*
X133170395Y-137160000D01*
X133529605Y-137160000D01*
X134485413Y-138115808D01*
X134749814Y-138020044D01*
X134890704Y-137730429D01*
X134972384Y-137418892D01*
X134984189Y-137222595D01*
X138208282Y-137222595D01*
X138252039Y-137541675D01*
X138357205Y-137846088D01*
X138450186Y-138020044D01*
X138714587Y-138115808D01*
X139670395Y-137160000D01*
X140029605Y-137160000D01*
X140985413Y-138115808D01*
X141249814Y-138020044D01*
X141390704Y-137730429D01*
X141472384Y-137418892D01*
X141484189Y-137222595D01*
X146948282Y-137222595D01*
X146992039Y-137541675D01*
X147097205Y-137846088D01*
X147190186Y-138020044D01*
X147454587Y-138115808D01*
X148410395Y-137160000D01*
X148769605Y-137160000D01*
X149725413Y-138115808D01*
X149989814Y-138020044D01*
X150130704Y-137730429D01*
X150212384Y-137418892D01*
X150224189Y-137222595D01*
X153448282Y-137222595D01*
X153492039Y-137541675D01*
X153597205Y-137846088D01*
X153690186Y-138020044D01*
X153954587Y-138115808D01*
X154910395Y-137160000D01*
X155269605Y-137160000D01*
X156225413Y-138115808D01*
X156489814Y-138020044D01*
X156630704Y-137730429D01*
X156712384Y-137418892D01*
X156724189Y-137222595D01*
X215528282Y-137222595D01*
X215572039Y-137541675D01*
X215677205Y-137846088D01*
X215770186Y-138020044D01*
X216034587Y-138115808D01*
X216990395Y-137160000D01*
X217349605Y-137160000D01*
X218305413Y-138115808D01*
X218569814Y-138020044D01*
X218710704Y-137730429D01*
X218792384Y-137418892D01*
X218804189Y-137222595D01*
X222028282Y-137222595D01*
X222072039Y-137541675D01*
X222177205Y-137846088D01*
X222270186Y-138020044D01*
X222534587Y-138115808D01*
X223490395Y-137160000D01*
X223849605Y-137160000D01*
X224805413Y-138115808D01*
X225069814Y-138020044D01*
X225210704Y-137730429D01*
X225292384Y-137418892D01*
X225311718Y-137097405D01*
X225267961Y-136778325D01*
X225162795Y-136473912D01*
X225069814Y-136299956D01*
X224805413Y-136204192D01*
X223849605Y-137160000D01*
X223490395Y-137160000D01*
X222534587Y-136204192D01*
X222270186Y-136299956D01*
X222129296Y-136589571D01*
X222047616Y-136901108D01*
X222028282Y-137222595D01*
X218804189Y-137222595D01*
X218811718Y-137097405D01*
X218767961Y-136778325D01*
X218662795Y-136473912D01*
X218569814Y-136299956D01*
X218305413Y-136204192D01*
X217349605Y-137160000D01*
X216990395Y-137160000D01*
X216034587Y-136204192D01*
X215770186Y-136299956D01*
X215629296Y-136589571D01*
X215547616Y-136901108D01*
X215528282Y-137222595D01*
X156724189Y-137222595D01*
X156731718Y-137097405D01*
X156687961Y-136778325D01*
X156582795Y-136473912D01*
X156489814Y-136299956D01*
X156225413Y-136204192D01*
X155269605Y-137160000D01*
X154910395Y-137160000D01*
X153954587Y-136204192D01*
X153690186Y-136299956D01*
X153549296Y-136589571D01*
X153467616Y-136901108D01*
X153448282Y-137222595D01*
X150224189Y-137222595D01*
X150231718Y-137097405D01*
X150187961Y-136778325D01*
X150082795Y-136473912D01*
X149989814Y-136299956D01*
X149725413Y-136204192D01*
X148769605Y-137160000D01*
X148410395Y-137160000D01*
X147454587Y-136204192D01*
X147190186Y-136299956D01*
X147049296Y-136589571D01*
X146967616Y-136901108D01*
X146948282Y-137222595D01*
X141484189Y-137222595D01*
X141491718Y-137097405D01*
X141447961Y-136778325D01*
X141342795Y-136473912D01*
X141249814Y-136299956D01*
X140985413Y-136204192D01*
X140029605Y-137160000D01*
X139670395Y-137160000D01*
X138714587Y-136204192D01*
X138450186Y-136299956D01*
X138309296Y-136589571D01*
X138227616Y-136901108D01*
X138208282Y-137222595D01*
X134984189Y-137222595D01*
X134991718Y-137097405D01*
X134947961Y-136778325D01*
X134842795Y-136473912D01*
X134749814Y-136299956D01*
X134485413Y-136204192D01*
X133529605Y-137160000D01*
X133170395Y-137160000D01*
X132214587Y-136204192D01*
X131950186Y-136299956D01*
X131809296Y-136589571D01*
X131727616Y-136901108D01*
X131708282Y-137222595D01*
X127514189Y-137222595D01*
X127521718Y-137097405D01*
X127477961Y-136778325D01*
X127372795Y-136473912D01*
X127279814Y-136299956D01*
X127015413Y-136204192D01*
X126059605Y-137160000D01*
X125700395Y-137160000D01*
X124744587Y-136204192D01*
X124480186Y-136299956D01*
X124339296Y-136589571D01*
X124257616Y-136901108D01*
X124238282Y-137222595D01*
X121014189Y-137222595D01*
X121021718Y-137097405D01*
X120977961Y-136778325D01*
X120872795Y-136473912D01*
X120779814Y-136299956D01*
X120515413Y-136204192D01*
X119559605Y-137160000D01*
X119200395Y-137160000D01*
X118244587Y-136204192D01*
X117980186Y-136299956D01*
X117839296Y-136589571D01*
X117757616Y-136901108D01*
X117738282Y-137222595D01*
X55124189Y-137222595D01*
X55131718Y-137097405D01*
X55087961Y-136778325D01*
X54982795Y-136473912D01*
X54889814Y-136299956D01*
X54625413Y-136204192D01*
X53669605Y-137160000D01*
X53310395Y-137160000D01*
X52354587Y-136204192D01*
X52090186Y-136299956D01*
X51949296Y-136589571D01*
X51867616Y-136901108D01*
X51848282Y-137222595D01*
X48624189Y-137222595D01*
X48631718Y-137097405D01*
X48587961Y-136778325D01*
X48482795Y-136473912D01*
X48389814Y-136299956D01*
X48125413Y-136204192D01*
X47169605Y-137160000D01*
X46810395Y-137160000D01*
X45854587Y-136204192D01*
X45590186Y-136299956D01*
X45449296Y-136589571D01*
X45367616Y-136901108D01*
X45348282Y-137222595D01*
X20980000Y-137222595D01*
X20980000Y-136024587D01*
X46034192Y-136024587D01*
X46990000Y-136980395D01*
X47945808Y-136024587D01*
X52534192Y-136024587D01*
X53490000Y-136980395D01*
X54445808Y-136024587D01*
X118424192Y-136024587D01*
X119380000Y-136980395D01*
X120335808Y-136024587D01*
X124924192Y-136024587D01*
X125880000Y-136980395D01*
X126835808Y-136024587D01*
X132394192Y-136024587D01*
X133350000Y-136980395D01*
X134305808Y-136024587D01*
X138894192Y-136024587D01*
X139850000Y-136980395D01*
X140805808Y-136024587D01*
X147634192Y-136024587D01*
X148590000Y-136980395D01*
X149545808Y-136024587D01*
X154134192Y-136024587D01*
X155090000Y-136980395D01*
X156045808Y-136024587D01*
X216214192Y-136024587D01*
X217170000Y-136980395D01*
X218125808Y-136024587D01*
X222714192Y-136024587D01*
X223670000Y-136980395D01*
X224625808Y-136024587D01*
X224530044Y-135760186D01*
X224240429Y-135619296D01*
X223928892Y-135537616D01*
X223607405Y-135518282D01*
X223288325Y-135562039D01*
X222983912Y-135667205D01*
X222809956Y-135760186D01*
X222714192Y-136024587D01*
X218125808Y-136024587D01*
X218030044Y-135760186D01*
X217740429Y-135619296D01*
X217428892Y-135537616D01*
X217107405Y-135518282D01*
X216788325Y-135562039D01*
X216483912Y-135667205D01*
X216309956Y-135760186D01*
X216214192Y-136024587D01*
X156045808Y-136024587D01*
X155950044Y-135760186D01*
X155660429Y-135619296D01*
X155348892Y-135537616D01*
X155027405Y-135518282D01*
X154708325Y-135562039D01*
X154403912Y-135667205D01*
X154229956Y-135760186D01*
X154134192Y-136024587D01*
X149545808Y-136024587D01*
X149450044Y-135760186D01*
X149160429Y-135619296D01*
X148848892Y-135537616D01*
X148527405Y-135518282D01*
X148208325Y-135562039D01*
X147903912Y-135667205D01*
X147729956Y-135760186D01*
X147634192Y-136024587D01*
X140805808Y-136024587D01*
X140710044Y-135760186D01*
X140420429Y-135619296D01*
X140108892Y-135537616D01*
X139787405Y-135518282D01*
X139468325Y-135562039D01*
X139163912Y-135667205D01*
X138989956Y-135760186D01*
X138894192Y-136024587D01*
X134305808Y-136024587D01*
X134210044Y-135760186D01*
X133920429Y-135619296D01*
X133608892Y-135537616D01*
X133287405Y-135518282D01*
X132968325Y-135562039D01*
X132663912Y-135667205D01*
X132489956Y-135760186D01*
X132394192Y-136024587D01*
X126835808Y-136024587D01*
X126740044Y-135760186D01*
X126450429Y-135619296D01*
X126138892Y-135537616D01*
X125817405Y-135518282D01*
X125498325Y-135562039D01*
X125193912Y-135667205D01*
X125019956Y-135760186D01*
X124924192Y-136024587D01*
X120335808Y-136024587D01*
X120240044Y-135760186D01*
X119950429Y-135619296D01*
X119638892Y-135537616D01*
X119317405Y-135518282D01*
X118998325Y-135562039D01*
X118693912Y-135667205D01*
X118519956Y-135760186D01*
X118424192Y-136024587D01*
X54445808Y-136024587D01*
X54350044Y-135760186D01*
X54060429Y-135619296D01*
X53748892Y-135537616D01*
X53427405Y-135518282D01*
X53108325Y-135562039D01*
X52803912Y-135667205D01*
X52629956Y-135760186D01*
X52534192Y-136024587D01*
X47945808Y-136024587D01*
X47850044Y-135760186D01*
X47560429Y-135619296D01*
X47248892Y-135537616D01*
X46927405Y-135518282D01*
X46608325Y-135562039D01*
X46303912Y-135667205D01*
X46129956Y-135760186D01*
X46034192Y-136024587D01*
X20980000Y-136024587D01*
X20980000Y-132740000D01*
X249530001Y-132740000D01*
X249530000Y-147930000D01*
G37*
X249530000Y-147930000D02*
X20980000Y-147930000D01*
X20980000Y-141498967D01*
X45355000Y-141498967D01*
X45355000Y-141821033D01*
X45417832Y-142136912D01*
X45541082Y-142434463D01*
X45720013Y-142702252D01*
X45947748Y-142929987D01*
X46215537Y-143108918D01*
X46513088Y-143232168D01*
X46828967Y-143295000D01*
X47151033Y-143295000D01*
X47466912Y-143232168D01*
X47764463Y-143108918D01*
X48032252Y-142929987D01*
X48259987Y-142702252D01*
X48438918Y-142434463D01*
X48562168Y-142136912D01*
X48625000Y-141821033D01*
X48625000Y-141498967D01*
X51855000Y-141498967D01*
X51855000Y-141821033D01*
X51917832Y-142136912D01*
X52041082Y-142434463D01*
X52220013Y-142702252D01*
X52447748Y-142929987D01*
X52715537Y-143108918D01*
X53013088Y-143232168D01*
X53328967Y-143295000D01*
X53651033Y-143295000D01*
X53966912Y-143232168D01*
X53981375Y-143226177D01*
X54776201Y-144021003D01*
X54799999Y-144050001D01*
X54828997Y-144073799D01*
X54915723Y-144144974D01*
X55047753Y-144215546D01*
X55191014Y-144259003D01*
X55302667Y-144270000D01*
X55302676Y-144270000D01*
X55339999Y-144273676D01*
X55377322Y-144270000D01*
X73622678Y-144270000D01*
X73660000Y-144273676D01*
X73697322Y-144270000D01*
X73697333Y-144270000D01*
X73808986Y-144259003D01*
X73952247Y-144215546D01*
X74084276Y-144144974D01*
X74200001Y-144050001D01*
X74223804Y-144020997D01*
X75833593Y-142411210D01*
X76053740Y-142455000D01*
X76346260Y-142455000D01*
X76633158Y-142397932D01*
X76903411Y-142285990D01*
X77146632Y-142123475D01*
X77278487Y-141991620D01*
X77300498Y-142064180D01*
X77359463Y-142174494D01*
X77438815Y-142271185D01*
X77535506Y-142350537D01*
X77645820Y-142409502D01*
X77765518Y-142445812D01*
X77890000Y-142458072D01*
X78454250Y-142455000D01*
X78613000Y-142296250D01*
X78613000Y-141097000D01*
X78867000Y-141097000D01*
X78867000Y-142296250D01*
X79025750Y-142455000D01*
X79590000Y-142458072D01*
X79714482Y-142445812D01*
X79834180Y-142409502D01*
X79944494Y-142350537D01*
X80041185Y-142271185D01*
X80120537Y-142174494D01*
X80179502Y-142064180D01*
X80215812Y-141944482D01*
X80228072Y-141820000D01*
X80226325Y-141498967D01*
X117745000Y-141498967D01*
X117745000Y-141821033D01*
X117807832Y-142136912D01*
X117931082Y-142434463D01*
X118110013Y-142702252D01*
X118337748Y-142929987D01*
X118605537Y-143108918D01*
X118903088Y-143232168D01*
X119218967Y-143295000D01*
X119541033Y-143295000D01*
X119856912Y-143232168D01*
X120154463Y-143108918D01*
X120422252Y-142929987D01*
X120649987Y-142702252D01*
X120828918Y-142434463D01*
X120952168Y-142136912D01*
X121015000Y-141821033D01*
X121015000Y-141498967D01*
X124245000Y-141498967D01*
X124245000Y-141821033D01*
X124307832Y-142136912D01*
X124431082Y-142434463D01*
X124610013Y-142702252D01*
X124837748Y-142929987D01*
X125105537Y-143108918D01*
X125403088Y-143232168D01*
X125718967Y-143295000D01*
X126041033Y-143295000D01*
X126356912Y-143232168D01*
X126654463Y-143108918D01*
X126922252Y-142929987D01*
X127149987Y-142702252D01*
X127328918Y-142434463D01*
X127452168Y-142136912D01*
X127515000Y-141821033D01*
X127515000Y-141498967D01*
X131715000Y-141498967D01*
X131715000Y-141821033D01*
X131777832Y-142136912D01*
X131901082Y-142434463D01*
X132080013Y-142702252D01*
X132307748Y-142929987D01*
X132575537Y-143108918D01*
X132873088Y-143232168D01*
X133188967Y-143295000D01*
X133511033Y-143295000D01*
X133826912Y-143232168D01*
X134124463Y-143108918D01*
X134392252Y-142929987D01*
X134619987Y-142702252D01*
X134798918Y-142434463D01*
X134922168Y-142136912D01*
X134985000Y-141821033D01*
X134985000Y-141498967D01*
X138215000Y-141498967D01*
X138215000Y-141821033D01*
X138277832Y-142136912D01*
X138401082Y-142434463D01*
X138580013Y-142702252D01*
X138807748Y-142929987D01*
X139075537Y-143108918D01*
X139373088Y-143232168D01*
X139688967Y-143295000D01*
X140011033Y-143295000D01*
X140326912Y-143232168D01*
X140624463Y-143108918D01*
X140892252Y-142929987D01*
X141119987Y-142702252D01*
X141298918Y-142434463D01*
X141422168Y-142136912D01*
X141485000Y-141821033D01*
X141485000Y-141498967D01*
X146955000Y-141498967D01*
X146955000Y-141821033D01*
X147017832Y-142136912D01*
X147141082Y-142434463D01*
X147320013Y-142702252D01*
X147547748Y-142929987D01*
X147815537Y-143108918D01*
X148113088Y-143232168D01*
X148428967Y-143295000D01*
X148751033Y-143295000D01*
X149066912Y-143232168D01*
X149364463Y-143108918D01*
X149632252Y-142929987D01*
X149859987Y-142702252D01*
X150038918Y-142434463D01*
X150162168Y-142136912D01*
X150225000Y-141821033D01*
X150225000Y-141498967D01*
X153455000Y-141498967D01*
X153455000Y-141821033D01*
X153517832Y-142136912D01*
X153641082Y-142434463D01*
X153820013Y-142702252D01*
X154047748Y-142929987D01*
X154315537Y-143108918D01*
X154613088Y-143232168D01*
X154928967Y-143295000D01*
X155251033Y-143295000D01*
X155566912Y-143232168D01*
X155864463Y-143108918D01*
X156132252Y-142929987D01*
X156359987Y-142702252D01*
X156538918Y-142434463D01*
X156662168Y-142136912D01*
X156725000Y-141821033D01*
X156725000Y-141498967D01*
X215535000Y-141498967D01*
X215535000Y-141821033D01*
X215597832Y-142136912D01*
X215721082Y-142434463D01*
X215900013Y-142702252D01*
X216127748Y-142929987D01*
X216395537Y-143108918D01*
X216693088Y-143232168D01*
X217008967Y-143295000D01*
X217331033Y-143295000D01*
X217646912Y-143232168D01*
X217944463Y-143108918D01*
X218212252Y-142929987D01*
X218439987Y-142702252D01*
X218618918Y-142434463D01*
X218742168Y-142136912D01*
X218805000Y-141821033D01*
X218805000Y-141498967D01*
X222035000Y-141498967D01*
X222035000Y-141821033D01*
X222097832Y-142136912D01*
X222221082Y-142434463D01*
X222400013Y-142702252D01*
X222627748Y-142929987D01*
X222895537Y-143108918D01*
X223193088Y-143232168D01*
X223508967Y-143295000D01*
X223831033Y-143295000D01*
X224146912Y-143232168D01*
X224444463Y-143108918D01*
X224712252Y-142929987D01*
X224939987Y-142702252D01*
X225118918Y-142434463D01*
X225242168Y-142136912D01*
X225305000Y-141821033D01*
X225305000Y-141498967D01*
X225242168Y-141183088D01*
X225118918Y-140885537D01*
X224939987Y-140617748D01*
X224712252Y-140390013D01*
X224444463Y-140211082D01*
X224146912Y-140087832D01*
X223831033Y-140025000D01*
X223508967Y-140025000D01*
X223193088Y-140087832D01*
X222895537Y-140211082D01*
X222627748Y-140390013D01*
X222400013Y-140617748D01*
X222221082Y-140885537D01*
X222097832Y-141183088D01*
X222035000Y-141498967D01*
X218805000Y-141498967D01*
X218742168Y-141183088D01*
X218618918Y-140885537D01*
X218439987Y-140617748D01*
X218212252Y-140390013D01*
X217944463Y-140211082D01*
X217646912Y-140087832D01*
X217331033Y-140025000D01*
X217008967Y-140025000D01*
X216693088Y-140087832D01*
X216395537Y-140211082D01*
X216127748Y-140390013D01*
X215900013Y-140617748D01*
X215721082Y-140885537D01*
X215597832Y-141183088D01*
X215535000Y-141498967D01*
X156725000Y-141498967D01*
X156662168Y-141183088D01*
X156538918Y-140885537D01*
X156359987Y-140617748D01*
X156132252Y-140390013D01*
X155864463Y-140211082D01*
X155566912Y-140087832D01*
X155251033Y-140025000D01*
X154928967Y-140025000D01*
X154613088Y-140087832D01*
X154315537Y-140211082D01*
X154047748Y-140390013D01*
X153820013Y-140617748D01*
X153641082Y-140885537D01*
X153517832Y-141183088D01*
X153455000Y-141498967D01*
X150225000Y-141498967D01*
X150162168Y-141183088D01*
X150038918Y-140885537D01*
X149859987Y-140617748D01*
X149632252Y-140390013D01*
X149364463Y-140211082D01*
X149066912Y-140087832D01*
X148751033Y-140025000D01*
X148428967Y-140025000D01*
X148113088Y-140087832D01*
X147815537Y-140211082D01*
X147547748Y-140390013D01*
X147320013Y-140617748D01*
X147141082Y-140885537D01*
X147017832Y-141183088D01*
X146955000Y-141498967D01*
X141485000Y-141498967D01*
X141422168Y-141183088D01*
X141298918Y-140885537D01*
X141119987Y-140617748D01*
X140892252Y-140390013D01*
X140624463Y-140211082D01*
X140326912Y-140087832D01*
X140011033Y-140025000D01*
X139688967Y-140025000D01*
X139373088Y-140087832D01*
X139075537Y-140211082D01*
X138807748Y-140390013D01*
X138580013Y-140617748D01*
X138401082Y-140885537D01*
X138277832Y-141183088D01*
X138215000Y-141498967D01*
X134985000Y-141498967D01*
X134922168Y-141183088D01*
X134798918Y-140885537D01*
X134619987Y-140617748D01*
X134392252Y-140390013D01*
X134124463Y-140211082D01*
X133826912Y-140087832D01*
X133511033Y-140025000D01*
X133188967Y-140025000D01*
X132873088Y-140087832D01*
X132575537Y-140211082D01*
X132307748Y-140390013D01*
X132080013Y-140617748D01*
X131901082Y-140885537D01*
X131777832Y-141183088D01*
X131715000Y-141498967D01*
X127515000Y-141498967D01*
X127452168Y-141183088D01*
X127328918Y-140885537D01*
X127149987Y-140617748D01*
X126922252Y-140390013D01*
X126654463Y-140211082D01*
X126356912Y-140087832D01*
X126041033Y-140025000D01*
X125718967Y-140025000D01*
X125403088Y-140087832D01*
X125105537Y-140211082D01*
X124837748Y-140390013D01*
X124610013Y-140617748D01*
X124431082Y-140885537D01*
X124307832Y-141183088D01*
X124245000Y-141498967D01*
X121015000Y-141498967D01*
X120952168Y-141183088D01*
X120828918Y-140885537D01*
X120649987Y-140617748D01*
X120422252Y-140390013D01*
X120154463Y-140211082D01*
X119856912Y-140087832D01*
X119541033Y-140025000D01*
X119218967Y-140025000D01*
X118903088Y-140087832D01*
X118605537Y-140211082D01*
X118337748Y-140390013D01*
X118110013Y-140617748D01*
X117931082Y-140885537D01*
X117807832Y-141183088D01*
X117745000Y-141498967D01*
X80226325Y-141498967D01*
X80225000Y-141255750D01*
X80066250Y-141097000D01*
X78867000Y-141097000D01*
X78613000Y-141097000D01*
X78593000Y-141097000D01*
X78593000Y-140843000D01*
X78613000Y-140843000D01*
X78613000Y-139643750D01*
X78867000Y-139643750D01*
X78867000Y-140843000D01*
X80066250Y-140843000D01*
X80225000Y-140684250D01*
X80228072Y-140120000D01*
X80215812Y-139995518D01*
X80179502Y-139875820D01*
X80120537Y-139765506D01*
X80041185Y-139668815D01*
X79944494Y-139589463D01*
X79834180Y-139530498D01*
X79714482Y-139494188D01*
X79590000Y-139481928D01*
X79025750Y-139485000D01*
X78867000Y-139643750D01*
X78613000Y-139643750D01*
X78454250Y-139485000D01*
X77890000Y-139481928D01*
X77765518Y-139494188D01*
X77645820Y-139530498D01*
X77535506Y-139589463D01*
X77438815Y-139668815D01*
X77359463Y-139765506D01*
X77300498Y-139875820D01*
X77278487Y-139948380D01*
X77146632Y-139816525D01*
X76903411Y-139654010D01*
X76633158Y-139542068D01*
X76346260Y-139485000D01*
X76053740Y-139485000D01*
X75766842Y-139542068D01*
X75496589Y-139654010D01*
X75253368Y-139816525D01*
X75046525Y-140023368D01*
X74930000Y-140197760D01*
X74813475Y-140023368D01*
X74606632Y-139816525D01*
X74363411Y-139654010D01*
X74093158Y-139542068D01*
X73806260Y-139485000D01*
X73513740Y-139485000D01*
X73226842Y-139542068D01*
X72956589Y-139654010D01*
X72713368Y-139816525D01*
X72506525Y-140023368D01*
X72390000Y-140197760D01*
X72273475Y-140023368D01*
X72066632Y-139816525D01*
X71823411Y-139654010D01*
X71553158Y-139542068D01*
X71266260Y-139485000D01*
X70973740Y-139485000D01*
X70686842Y-139542068D01*
X70416589Y-139654010D01*
X70173368Y-139816525D01*
X69966525Y-140023368D01*
X69850000Y-140197760D01*
X69733475Y-140023368D01*
X69526632Y-139816525D01*
X69283411Y-139654010D01*
X69013158Y-139542068D01*
X68726260Y-139485000D01*
X68433740Y-139485000D01*
X68146842Y-139542068D01*
X67876589Y-139654010D01*
X67633368Y-139816525D01*
X67426525Y-140023368D01*
X67310000Y-140197760D01*
X67193475Y-140023368D01*
X66986632Y-139816525D01*
X66743411Y-139654010D01*
X66473158Y-139542068D01*
X66186260Y-139485000D01*
X65893740Y-139485000D01*
X65606842Y-139542068D01*
X65336589Y-139654010D01*
X65093368Y-139816525D01*
X64886525Y-140023368D01*
X64724010Y-140266589D01*
X64612068Y-140536842D01*
X64555000Y-140823740D01*
X64555000Y-141116260D01*
X64612068Y-141403158D01*
X64724010Y-141673411D01*
X64886525Y-141916632D01*
X65093368Y-142123475D01*
X65336589Y-142285990D01*
X65606842Y-142397932D01*
X65893740Y-142455000D01*
X66186260Y-142455000D01*
X66473158Y-142397932D01*
X66743411Y-142285990D01*
X66986632Y-142123475D01*
X67193475Y-141916632D01*
X67310000Y-141742240D01*
X67426525Y-141916632D01*
X67633368Y-142123475D01*
X67876589Y-142285990D01*
X68146842Y-142397932D01*
X68433740Y-142455000D01*
X68726260Y-142455000D01*
X69013158Y-142397932D01*
X69283411Y-142285990D01*
X69526632Y-142123475D01*
X69733475Y-141916632D01*
X69850000Y-141742240D01*
X69966525Y-141916632D01*
X70173368Y-142123475D01*
X70416589Y-142285990D01*
X70686842Y-142397932D01*
X70973740Y-142455000D01*
X71266260Y-142455000D01*
X71553158Y-142397932D01*
X71823411Y-142285990D01*
X72066632Y-142123475D01*
X72273475Y-141916632D01*
X72390000Y-141742240D01*
X72506525Y-141916632D01*
X72713368Y-142123475D01*
X72956589Y-142285990D01*
X73226842Y-142397932D01*
X73513740Y-142455000D01*
X73640199Y-142455000D01*
X73345199Y-142750000D01*
X55654802Y-142750000D01*
X55056177Y-142151375D01*
X55062168Y-142136912D01*
X55125000Y-141821033D01*
X55125000Y-141498967D01*
X55062168Y-141183088D01*
X54938918Y-140885537D01*
X54759987Y-140617748D01*
X54532252Y-140390013D01*
X54264463Y-140211082D01*
X53966912Y-140087832D01*
X53651033Y-140025000D01*
X53328967Y-140025000D01*
X53013088Y-140087832D01*
X52715537Y-140211082D01*
X52447748Y-140390013D01*
X52220013Y-140617748D01*
X52041082Y-140885537D01*
X51917832Y-141183088D01*
X51855000Y-141498967D01*
X48625000Y-141498967D01*
X48562168Y-141183088D01*
X48438918Y-140885537D01*
X48259987Y-140617748D01*
X48032252Y-140390013D01*
X47764463Y-140211082D01*
X47466912Y-140087832D01*
X47151033Y-140025000D01*
X46828967Y-140025000D01*
X46513088Y-140087832D01*
X46215537Y-140211082D01*
X45947748Y-140390013D01*
X45720013Y-140617748D01*
X45541082Y-140885537D01*
X45417832Y-141183088D01*
X45355000Y-141498967D01*
X20980000Y-141498967D01*
X20980000Y-138295413D01*
X46034192Y-138295413D01*
X46129956Y-138559814D01*
X46419571Y-138700704D01*
X46731108Y-138782384D01*
X47052595Y-138801718D01*
X47371675Y-138757961D01*
X47676088Y-138652795D01*
X47850044Y-138559814D01*
X47945808Y-138295413D01*
X52534192Y-138295413D01*
X52629956Y-138559814D01*
X52919571Y-138700704D01*
X53231108Y-138782384D01*
X53552595Y-138801718D01*
X53871675Y-138757961D01*
X54176088Y-138652795D01*
X54350044Y-138559814D01*
X54445808Y-138295413D01*
X118424192Y-138295413D01*
X118519956Y-138559814D01*
X118809571Y-138700704D01*
X119121108Y-138782384D01*
X119442595Y-138801718D01*
X119761675Y-138757961D01*
X120066088Y-138652795D01*
X120240044Y-138559814D01*
X120335808Y-138295413D01*
X124924192Y-138295413D01*
X125019956Y-138559814D01*
X125309571Y-138700704D01*
X125621108Y-138782384D01*
X125942595Y-138801718D01*
X126261675Y-138757961D01*
X126566088Y-138652795D01*
X126740044Y-138559814D01*
X126835808Y-138295413D01*
X132394192Y-138295413D01*
X132489956Y-138559814D01*
X132779571Y-138700704D01*
X133091108Y-138782384D01*
X133412595Y-138801718D01*
X133731675Y-138757961D01*
X134036088Y-138652795D01*
X134210044Y-138559814D01*
X134305808Y-138295413D01*
X138894192Y-138295413D01*
X138989956Y-138559814D01*
X139279571Y-138700704D01*
X139591108Y-138782384D01*
X139912595Y-138801718D01*
X140231675Y-138757961D01*
X140536088Y-138652795D01*
X140710044Y-138559814D01*
X140805808Y-138295413D01*
X147634192Y-138295413D01*
X147729956Y-138559814D01*
X148019571Y-138700704D01*
X148331108Y-138782384D01*
X148652595Y-138801718D01*
X148971675Y-138757961D01*
X149276088Y-138652795D01*
X149450044Y-138559814D01*
X149545808Y-138295413D01*
X154134192Y-138295413D01*
X154229956Y-138559814D01*
X154519571Y-138700704D01*
X154831108Y-138782384D01*
X155152595Y-138801718D01*
X155471675Y-138757961D01*
X155776088Y-138652795D01*
X155950044Y-138559814D01*
X156045808Y-138295413D01*
X216214192Y-138295413D01*
X216309956Y-138559814D01*
X216599571Y-138700704D01*
X216911108Y-138782384D01*
X217232595Y-138801718D01*
X217551675Y-138757961D01*
X217856088Y-138652795D01*
X218030044Y-138559814D01*
X218125808Y-138295413D01*
X222714192Y-138295413D01*
X222809956Y-138559814D01*
X223099571Y-138700704D01*
X223411108Y-138782384D01*
X223732595Y-138801718D01*
X224051675Y-138757961D01*
X224356088Y-138652795D01*
X224530044Y-138559814D01*
X224625808Y-138295413D01*
X223670000Y-137339605D01*
X222714192Y-138295413D01*
X218125808Y-138295413D01*
X217170000Y-137339605D01*
X216214192Y-138295413D01*
X156045808Y-138295413D01*
X155090000Y-137339605D01*
X154134192Y-138295413D01*
X149545808Y-138295413D01*
X148590000Y-137339605D01*
X147634192Y-138295413D01*
X140805808Y-138295413D01*
X139850000Y-137339605D01*
X138894192Y-138295413D01*
X134305808Y-138295413D01*
X133350000Y-137339605D01*
X132394192Y-138295413D01*
X126835808Y-138295413D01*
X125880000Y-137339605D01*
X124924192Y-138295413D01*
X120335808Y-138295413D01*
X119380000Y-137339605D01*
X118424192Y-138295413D01*
X54445808Y-138295413D01*
X53490000Y-137339605D01*
X52534192Y-138295413D01*
X47945808Y-138295413D01*
X46990000Y-137339605D01*
X46034192Y-138295413D01*
X20980000Y-138295413D01*
X20980000Y-137222595D01*
X45348282Y-137222595D01*
X45392039Y-137541675D01*
X45497205Y-137846088D01*
X45590186Y-138020044D01*
X45854587Y-138115808D01*
X46810395Y-137160000D01*
X47169605Y-137160000D01*
X48125413Y-138115808D01*
X48389814Y-138020044D01*
X48530704Y-137730429D01*
X48612384Y-137418892D01*
X48624189Y-137222595D01*
X51848282Y-137222595D01*
X51892039Y-137541675D01*
X51997205Y-137846088D01*
X52090186Y-138020044D01*
X52354587Y-138115808D01*
X53310395Y-137160000D01*
X53669605Y-137160000D01*
X54625413Y-138115808D01*
X54889814Y-138020044D01*
X55030704Y-137730429D01*
X55112384Y-137418892D01*
X55124189Y-137222595D01*
X117738282Y-137222595D01*
X117782039Y-137541675D01*
X117887205Y-137846088D01*
X117980186Y-138020044D01*
X118244587Y-138115808D01*
X119200395Y-137160000D01*
X119559605Y-137160000D01*
X120515413Y-138115808D01*
X120779814Y-138020044D01*
X120920704Y-137730429D01*
X121002384Y-137418892D01*
X121014189Y-137222595D01*
X124238282Y-137222595D01*
X124282039Y-137541675D01*
X124387205Y-137846088D01*
X124480186Y-138020044D01*
X124744587Y-138115808D01*
X125700395Y-137160000D01*
X126059605Y-137160000D01*
X127015413Y-138115808D01*
X127279814Y-138020044D01*
X127420704Y-137730429D01*
X127502384Y-137418892D01*
X127514189Y-137222595D01*
X131708282Y-137222595D01*
X131752039Y-137541675D01*
X131857205Y-137846088D01*
X131950186Y-138020044D01*
X132214587Y-138115808D01*
X133170395Y-137160000D01*
X133529605Y-137160000D01*
X134485413Y-138115808D01*
X134749814Y-138020044D01*
X134890704Y-137730429D01*
X134972384Y-137418892D01*
X134984189Y-137222595D01*
X138208282Y-137222595D01*
X138252039Y-137541675D01*
X138357205Y-137846088D01*
X138450186Y-138020044D01*
X138714587Y-138115808D01*
X139670395Y-137160000D01*
X140029605Y-137160000D01*
X140985413Y-138115808D01*
X141249814Y-138020044D01*
X141390704Y-137730429D01*
X141472384Y-137418892D01*
X141484189Y-137222595D01*
X146948282Y-137222595D01*
X146992039Y-137541675D01*
X147097205Y-137846088D01*
X147190186Y-138020044D01*
X147454587Y-138115808D01*
X148410395Y-137160000D01*
X148769605Y-137160000D01*
X149725413Y-138115808D01*
X149989814Y-138020044D01*
X150130704Y-137730429D01*
X150212384Y-137418892D01*
X150224189Y-137222595D01*
X153448282Y-137222595D01*
X153492039Y-137541675D01*
X153597205Y-137846088D01*
X153690186Y-138020044D01*
X153954587Y-138115808D01*
X154910395Y-137160000D01*
X155269605Y-137160000D01*
X156225413Y-138115808D01*
X156489814Y-138020044D01*
X156630704Y-137730429D01*
X156712384Y-137418892D01*
X156724189Y-137222595D01*
X215528282Y-137222595D01*
X215572039Y-137541675D01*
X215677205Y-137846088D01*
X215770186Y-138020044D01*
X216034587Y-138115808D01*
X216990395Y-137160000D01*
X217349605Y-137160000D01*
X218305413Y-138115808D01*
X218569814Y-138020044D01*
X218710704Y-137730429D01*
X218792384Y-137418892D01*
X218804189Y-137222595D01*
X222028282Y-137222595D01*
X222072039Y-137541675D01*
X222177205Y-137846088D01*
X222270186Y-138020044D01*
X222534587Y-138115808D01*
X223490395Y-137160000D01*
X223849605Y-137160000D01*
X224805413Y-138115808D01*
X225069814Y-138020044D01*
X225210704Y-137730429D01*
X225292384Y-137418892D01*
X225311718Y-137097405D01*
X225267961Y-136778325D01*
X225162795Y-136473912D01*
X225069814Y-136299956D01*
X224805413Y-136204192D01*
X223849605Y-137160000D01*
X223490395Y-137160000D01*
X222534587Y-136204192D01*
X222270186Y-136299956D01*
X222129296Y-136589571D01*
X222047616Y-136901108D01*
X222028282Y-137222595D01*
X218804189Y-137222595D01*
X218811718Y-137097405D01*
X218767961Y-136778325D01*
X218662795Y-136473912D01*
X218569814Y-136299956D01*
X218305413Y-136204192D01*
X217349605Y-137160000D01*
X216990395Y-137160000D01*
X216034587Y-136204192D01*
X215770186Y-136299956D01*
X215629296Y-136589571D01*
X215547616Y-136901108D01*
X215528282Y-137222595D01*
X156724189Y-137222595D01*
X156731718Y-137097405D01*
X156687961Y-136778325D01*
X156582795Y-136473912D01*
X156489814Y-136299956D01*
X156225413Y-136204192D01*
X155269605Y-137160000D01*
X154910395Y-137160000D01*
X153954587Y-136204192D01*
X153690186Y-136299956D01*
X153549296Y-136589571D01*
X153467616Y-136901108D01*
X153448282Y-137222595D01*
X150224189Y-137222595D01*
X150231718Y-137097405D01*
X150187961Y-136778325D01*
X150082795Y-136473912D01*
X149989814Y-136299956D01*
X149725413Y-136204192D01*
X148769605Y-137160000D01*
X148410395Y-137160000D01*
X147454587Y-136204192D01*
X147190186Y-136299956D01*
X147049296Y-136589571D01*
X146967616Y-136901108D01*
X146948282Y-137222595D01*
X141484189Y-137222595D01*
X141491718Y-137097405D01*
X141447961Y-136778325D01*
X141342795Y-136473912D01*
X141249814Y-136299956D01*
X140985413Y-136204192D01*
X140029605Y-137160000D01*
X139670395Y-137160000D01*
X138714587Y-136204192D01*
X138450186Y-136299956D01*
X138309296Y-136589571D01*
X138227616Y-136901108D01*
X138208282Y-137222595D01*
X134984189Y-137222595D01*
X134991718Y-137097405D01*
X134947961Y-136778325D01*
X134842795Y-136473912D01*
X134749814Y-136299956D01*
X134485413Y-136204192D01*
X133529605Y-137160000D01*
X133170395Y-137160000D01*
X132214587Y-136204192D01*
X131950186Y-136299956D01*
X131809296Y-136589571D01*
X131727616Y-136901108D01*
X131708282Y-137222595D01*
X127514189Y-137222595D01*
X127521718Y-137097405D01*
X127477961Y-136778325D01*
X127372795Y-136473912D01*
X127279814Y-136299956D01*
X127015413Y-136204192D01*
X126059605Y-137160000D01*
X125700395Y-137160000D01*
X124744587Y-136204192D01*
X124480186Y-136299956D01*
X124339296Y-136589571D01*
X124257616Y-136901108D01*
X124238282Y-137222595D01*
X121014189Y-137222595D01*
X121021718Y-137097405D01*
X120977961Y-136778325D01*
X120872795Y-136473912D01*
X120779814Y-136299956D01*
X120515413Y-136204192D01*
X119559605Y-137160000D01*
X119200395Y-137160000D01*
X118244587Y-136204192D01*
X117980186Y-136299956D01*
X117839296Y-136589571D01*
X117757616Y-136901108D01*
X117738282Y-137222595D01*
X55124189Y-137222595D01*
X55131718Y-137097405D01*
X55087961Y-136778325D01*
X54982795Y-136473912D01*
X54889814Y-136299956D01*
X54625413Y-136204192D01*
X53669605Y-137160000D01*
X53310395Y-137160000D01*
X52354587Y-136204192D01*
X52090186Y-136299956D01*
X51949296Y-136589571D01*
X51867616Y-136901108D01*
X51848282Y-137222595D01*
X48624189Y-137222595D01*
X48631718Y-137097405D01*
X48587961Y-136778325D01*
X48482795Y-136473912D01*
X48389814Y-136299956D01*
X48125413Y-136204192D01*
X47169605Y-137160000D01*
X46810395Y-137160000D01*
X45854587Y-136204192D01*
X45590186Y-136299956D01*
X45449296Y-136589571D01*
X45367616Y-136901108D01*
X45348282Y-137222595D01*
X20980000Y-137222595D01*
X20980000Y-136024587D01*
X46034192Y-136024587D01*
X46990000Y-136980395D01*
X47945808Y-136024587D01*
X52534192Y-136024587D01*
X53490000Y-136980395D01*
X54445808Y-136024587D01*
X118424192Y-136024587D01*
X119380000Y-136980395D01*
X120335808Y-136024587D01*
X124924192Y-136024587D01*
X125880000Y-136980395D01*
X126835808Y-136024587D01*
X132394192Y-136024587D01*
X133350000Y-136980395D01*
X134305808Y-136024587D01*
X138894192Y-136024587D01*
X139850000Y-136980395D01*
X140805808Y-136024587D01*
X147634192Y-136024587D01*
X148590000Y-136980395D01*
X149545808Y-136024587D01*
X154134192Y-136024587D01*
X155090000Y-136980395D01*
X156045808Y-136024587D01*
X216214192Y-136024587D01*
X217170000Y-136980395D01*
X218125808Y-136024587D01*
X222714192Y-136024587D01*
X223670000Y-136980395D01*
X224625808Y-136024587D01*
X224530044Y-135760186D01*
X224240429Y-135619296D01*
X223928892Y-135537616D01*
X223607405Y-135518282D01*
X223288325Y-135562039D01*
X222983912Y-135667205D01*
X222809956Y-135760186D01*
X222714192Y-136024587D01*
X218125808Y-136024587D01*
X218030044Y-135760186D01*
X217740429Y-135619296D01*
X217428892Y-135537616D01*
X217107405Y-135518282D01*
X216788325Y-135562039D01*
X216483912Y-135667205D01*
X216309956Y-135760186D01*
X216214192Y-136024587D01*
X156045808Y-136024587D01*
X155950044Y-135760186D01*
X155660429Y-135619296D01*
X155348892Y-135537616D01*
X155027405Y-135518282D01*
X154708325Y-135562039D01*
X154403912Y-135667205D01*
X154229956Y-135760186D01*
X154134192Y-136024587D01*
X149545808Y-136024587D01*
X149450044Y-135760186D01*
X149160429Y-135619296D01*
X148848892Y-135537616D01*
X148527405Y-135518282D01*
X148208325Y-135562039D01*
X147903912Y-135667205D01*
X147729956Y-135760186D01*
X147634192Y-136024587D01*
X140805808Y-136024587D01*
X140710044Y-135760186D01*
X140420429Y-135619296D01*
X140108892Y-135537616D01*
X139787405Y-135518282D01*
X139468325Y-135562039D01*
X139163912Y-135667205D01*
X138989956Y-135760186D01*
X138894192Y-136024587D01*
X134305808Y-136024587D01*
X134210044Y-135760186D01*
X133920429Y-135619296D01*
X133608892Y-135537616D01*
X133287405Y-135518282D01*
X132968325Y-135562039D01*
X132663912Y-135667205D01*
X132489956Y-135760186D01*
X132394192Y-136024587D01*
X126835808Y-136024587D01*
X126740044Y-135760186D01*
X126450429Y-135619296D01*
X126138892Y-135537616D01*
X125817405Y-135518282D01*
X125498325Y-135562039D01*
X125193912Y-135667205D01*
X125019956Y-135760186D01*
X124924192Y-136024587D01*
X120335808Y-136024587D01*
X120240044Y-135760186D01*
X119950429Y-135619296D01*
X119638892Y-135537616D01*
X119317405Y-135518282D01*
X118998325Y-135562039D01*
X118693912Y-135667205D01*
X118519956Y-135760186D01*
X118424192Y-136024587D01*
X54445808Y-136024587D01*
X54350044Y-135760186D01*
X54060429Y-135619296D01*
X53748892Y-135537616D01*
X53427405Y-135518282D01*
X53108325Y-135562039D01*
X52803912Y-135667205D01*
X52629956Y-135760186D01*
X52534192Y-136024587D01*
X47945808Y-136024587D01*
X47850044Y-135760186D01*
X47560429Y-135619296D01*
X47248892Y-135537616D01*
X46927405Y-135518282D01*
X46608325Y-135562039D01*
X46303912Y-135667205D01*
X46129956Y-135760186D01*
X46034192Y-136024587D01*
X20980000Y-136024587D01*
X20980000Y-132740000D01*
X249530001Y-132740000D01*
X249530000Y-147930000D01*
M02*
