G04 #@! TF.GenerationSoftware,KiCad,Pcbnew,(5.1.5-0-10_14)*
G04 #@! TF.CreationDate,2020-02-09T14:38:22-05:00*
G04 #@! TF.ProjectId,ButtonBoard,42757474-6f6e-4426-9f61-72642e6b6963,rev?*
G04 #@! TF.SameCoordinates,Original*
G04 #@! TF.FileFunction,Legend,Top*
G04 #@! TF.FilePolarity,Positive*
%FSLAX46Y46*%
G04 Gerber Fmt 4.6, Leading zero omitted, Abs format (unit mm)*
G04 Created by KiCad (PCBNEW (5.1.5-0-10_14)) date 2020-02-09 14:38:22*
%MOMM*%
%LPD*%
G04 APERTURE LIST*
%ADD10C,0.120000*%
%ADD11C,0.150000*%
G04 APERTURE END LIST*
D10*
X79950000Y-130880000D02*
X79950000Y-139510000D01*
X79831905Y-130880000D02*
X79831905Y-139510000D01*
X79713810Y-130880000D02*
X79713810Y-139510000D01*
X79595715Y-130880000D02*
X79595715Y-139510000D01*
X79477620Y-130880000D02*
X79477620Y-139510000D01*
X79359525Y-130880000D02*
X79359525Y-139510000D01*
X79241430Y-130880000D02*
X79241430Y-139510000D01*
X79123335Y-130880000D02*
X79123335Y-139510000D01*
X79005240Y-130880000D02*
X79005240Y-139510000D01*
X78887145Y-130880000D02*
X78887145Y-139510000D01*
X78769050Y-130880000D02*
X78769050Y-139510000D01*
X78650955Y-130880000D02*
X78650955Y-139510000D01*
X78532860Y-130880000D02*
X78532860Y-139510000D01*
X78414765Y-130880000D02*
X78414765Y-139510000D01*
X78296670Y-130880000D02*
X78296670Y-139510000D01*
X78178575Y-130880000D02*
X78178575Y-139510000D01*
X78060480Y-130880000D02*
X78060480Y-139510000D01*
X77942385Y-130880000D02*
X77942385Y-139510000D01*
X77824290Y-130880000D02*
X77824290Y-139510000D01*
X77706195Y-130880000D02*
X77706195Y-139510000D01*
X77588100Y-130880000D02*
X77588100Y-139510000D01*
X79100000Y-139510000D02*
X79100000Y-139860000D01*
X78380000Y-139510000D02*
X78380000Y-139860000D01*
X76560000Y-139510000D02*
X76560000Y-139920000D01*
X75840000Y-139510000D02*
X75840000Y-139920000D01*
X74020000Y-139510000D02*
X74020000Y-139920000D01*
X73300000Y-139510000D02*
X73300000Y-139920000D01*
X71480000Y-139510000D02*
X71480000Y-139920000D01*
X70760000Y-139510000D02*
X70760000Y-139920000D01*
X68940000Y-139510000D02*
X68940000Y-139920000D01*
X68220000Y-139510000D02*
X68220000Y-139920000D01*
X66400000Y-139510000D02*
X66400000Y-139920000D01*
X65680000Y-139510000D02*
X65680000Y-139920000D01*
X77470000Y-130880000D02*
X77470000Y-139510000D01*
X74930000Y-130880000D02*
X74930000Y-139510000D01*
X72390000Y-130880000D02*
X72390000Y-139510000D01*
X69850000Y-130880000D02*
X69850000Y-139510000D01*
X67310000Y-130880000D02*
X67310000Y-139510000D01*
X80070000Y-130880000D02*
X80070000Y-139510000D01*
X80070000Y-139510000D02*
X64710000Y-139510000D01*
X64710000Y-130880000D02*
X64710000Y-139510000D01*
X80070000Y-130880000D02*
X64710000Y-130880000D01*
X80070000Y-142080000D02*
X78740000Y-142080000D01*
X80070000Y-140970000D02*
X80070000Y-142080000D01*
X47990000Y-142660000D02*
X52490000Y-142660000D01*
X46740000Y-138660000D02*
X46740000Y-140160000D01*
X52490000Y-136160000D02*
X47990000Y-136160000D01*
X53740000Y-140160000D02*
X53740000Y-138660000D01*
X126130000Y-140160000D02*
X126130000Y-138660000D01*
X124880000Y-136160000D02*
X120380000Y-136160000D01*
X119130000Y-138660000D02*
X119130000Y-140160000D01*
X120380000Y-142660000D02*
X124880000Y-142660000D01*
X134350000Y-142660000D02*
X138850000Y-142660000D01*
X133100000Y-138660000D02*
X133100000Y-140160000D01*
X138850000Y-136160000D02*
X134350000Y-136160000D01*
X140100000Y-140160000D02*
X140100000Y-138660000D01*
X155340000Y-140160000D02*
X155340000Y-138660000D01*
X154090000Y-136160000D02*
X149590000Y-136160000D01*
X148340000Y-138660000D02*
X148340000Y-140160000D01*
X149590000Y-142660000D02*
X154090000Y-142660000D01*
X218170000Y-142660000D02*
X222670000Y-142660000D01*
X216920000Y-138660000D02*
X216920000Y-140160000D01*
X222670000Y-136160000D02*
X218170000Y-136160000D01*
X223920000Y-140160000D02*
X223920000Y-138660000D01*
D11*
X80962380Y-136923333D02*
X81676666Y-136923333D01*
X81819523Y-136970952D01*
X81914761Y-137066190D01*
X81962380Y-137209047D01*
X81962380Y-137304285D01*
X81962380Y-135923333D02*
X81962380Y-136494761D01*
X81962380Y-136209047D02*
X80962380Y-136209047D01*
X81105238Y-136304285D01*
X81200476Y-136399523D01*
X81248095Y-136494761D01*
X48906666Y-135564761D02*
X49049523Y-135612380D01*
X49287619Y-135612380D01*
X49382857Y-135564761D01*
X49430476Y-135517142D01*
X49478095Y-135421904D01*
X49478095Y-135326666D01*
X49430476Y-135231428D01*
X49382857Y-135183809D01*
X49287619Y-135136190D01*
X49097142Y-135088571D01*
X49001904Y-135040952D01*
X48954285Y-134993333D01*
X48906666Y-134898095D01*
X48906666Y-134802857D01*
X48954285Y-134707619D01*
X49001904Y-134660000D01*
X49097142Y-134612380D01*
X49335238Y-134612380D01*
X49478095Y-134660000D01*
X49811428Y-134612380D02*
X50049523Y-135612380D01*
X50240000Y-134898095D01*
X50430476Y-135612380D01*
X50668571Y-134612380D01*
X51573333Y-135612380D02*
X51001904Y-135612380D01*
X51287619Y-135612380D02*
X51287619Y-134612380D01*
X51192380Y-134755238D01*
X51097142Y-134850476D01*
X51001904Y-134898095D01*
X121296666Y-135564761D02*
X121439523Y-135612380D01*
X121677619Y-135612380D01*
X121772857Y-135564761D01*
X121820476Y-135517142D01*
X121868095Y-135421904D01*
X121868095Y-135326666D01*
X121820476Y-135231428D01*
X121772857Y-135183809D01*
X121677619Y-135136190D01*
X121487142Y-135088571D01*
X121391904Y-135040952D01*
X121344285Y-134993333D01*
X121296666Y-134898095D01*
X121296666Y-134802857D01*
X121344285Y-134707619D01*
X121391904Y-134660000D01*
X121487142Y-134612380D01*
X121725238Y-134612380D01*
X121868095Y-134660000D01*
X122201428Y-134612380D02*
X122439523Y-135612380D01*
X122630000Y-134898095D01*
X122820476Y-135612380D01*
X123058571Y-134612380D01*
X123391904Y-134707619D02*
X123439523Y-134660000D01*
X123534761Y-134612380D01*
X123772857Y-134612380D01*
X123868095Y-134660000D01*
X123915714Y-134707619D01*
X123963333Y-134802857D01*
X123963333Y-134898095D01*
X123915714Y-135040952D01*
X123344285Y-135612380D01*
X123963333Y-135612380D01*
X135266666Y-135564761D02*
X135409523Y-135612380D01*
X135647619Y-135612380D01*
X135742857Y-135564761D01*
X135790476Y-135517142D01*
X135838095Y-135421904D01*
X135838095Y-135326666D01*
X135790476Y-135231428D01*
X135742857Y-135183809D01*
X135647619Y-135136190D01*
X135457142Y-135088571D01*
X135361904Y-135040952D01*
X135314285Y-134993333D01*
X135266666Y-134898095D01*
X135266666Y-134802857D01*
X135314285Y-134707619D01*
X135361904Y-134660000D01*
X135457142Y-134612380D01*
X135695238Y-134612380D01*
X135838095Y-134660000D01*
X136171428Y-134612380D02*
X136409523Y-135612380D01*
X136600000Y-134898095D01*
X136790476Y-135612380D01*
X137028571Y-134612380D01*
X137314285Y-134612380D02*
X137933333Y-134612380D01*
X137600000Y-134993333D01*
X137742857Y-134993333D01*
X137838095Y-135040952D01*
X137885714Y-135088571D01*
X137933333Y-135183809D01*
X137933333Y-135421904D01*
X137885714Y-135517142D01*
X137838095Y-135564761D01*
X137742857Y-135612380D01*
X137457142Y-135612380D01*
X137361904Y-135564761D01*
X137314285Y-135517142D01*
X150506666Y-135564761D02*
X150649523Y-135612380D01*
X150887619Y-135612380D01*
X150982857Y-135564761D01*
X151030476Y-135517142D01*
X151078095Y-135421904D01*
X151078095Y-135326666D01*
X151030476Y-135231428D01*
X150982857Y-135183809D01*
X150887619Y-135136190D01*
X150697142Y-135088571D01*
X150601904Y-135040952D01*
X150554285Y-134993333D01*
X150506666Y-134898095D01*
X150506666Y-134802857D01*
X150554285Y-134707619D01*
X150601904Y-134660000D01*
X150697142Y-134612380D01*
X150935238Y-134612380D01*
X151078095Y-134660000D01*
X151411428Y-134612380D02*
X151649523Y-135612380D01*
X151840000Y-134898095D01*
X152030476Y-135612380D01*
X152268571Y-134612380D01*
X153078095Y-134945714D02*
X153078095Y-135612380D01*
X152840000Y-134564761D02*
X152601904Y-135279047D01*
X153220952Y-135279047D01*
X219086666Y-135564761D02*
X219229523Y-135612380D01*
X219467619Y-135612380D01*
X219562857Y-135564761D01*
X219610476Y-135517142D01*
X219658095Y-135421904D01*
X219658095Y-135326666D01*
X219610476Y-135231428D01*
X219562857Y-135183809D01*
X219467619Y-135136190D01*
X219277142Y-135088571D01*
X219181904Y-135040952D01*
X219134285Y-134993333D01*
X219086666Y-134898095D01*
X219086666Y-134802857D01*
X219134285Y-134707619D01*
X219181904Y-134660000D01*
X219277142Y-134612380D01*
X219515238Y-134612380D01*
X219658095Y-134660000D01*
X219991428Y-134612380D02*
X220229523Y-135612380D01*
X220420000Y-134898095D01*
X220610476Y-135612380D01*
X220848571Y-134612380D01*
X221705714Y-134612380D02*
X221229523Y-134612380D01*
X221181904Y-135088571D01*
X221229523Y-135040952D01*
X221324761Y-134993333D01*
X221562857Y-134993333D01*
X221658095Y-135040952D01*
X221705714Y-135088571D01*
X221753333Y-135183809D01*
X221753333Y-135421904D01*
X221705714Y-135517142D01*
X221658095Y-135564761D01*
X221562857Y-135612380D01*
X221324761Y-135612380D01*
X221229523Y-135564761D01*
X221181904Y-135517142D01*
M02*
