M48
; DRILL file {KiCad (5.1.5-0-10_14)} date Sunday, February 09, 2020 at 02:38:29 PM
; FORMAT={-:-/ absolute / inch / decimal}
; #@! TF.CreationDate,2020-02-09T14:38:29-05:00
; #@! TF.GenerationSoftware,Kicad,Pcbnew,(5.1.5-0-10_14)
; #@! TF.FileFunction,Plated,1,2,PTH
FMAT,2
INCH
T1C0.0394
T2C0.0433
%
G90
G05
T1
X2.6Y-5.55
X2.7Y-5.55
X2.8Y-5.55
X2.9Y-5.55
X3.0Y-5.55
X3.1Y-5.55
T2
X4.7Y-5.4
X4.7Y-5.5772
X4.9559Y-5.4
X4.9559Y-5.5772
X1.85Y-5.4
X1.85Y-5.5772
X2.1059Y-5.4
X2.1059Y-5.5772
X5.85Y-5.4
X5.85Y-5.5772
X6.1059Y-5.4
X6.1059Y-5.5772
X5.25Y-5.4
X5.25Y-5.5772
X5.5059Y-5.4
X5.5059Y-5.5772
X8.55Y-5.4
X8.55Y-5.5772
X8.8059Y-5.4
X8.8059Y-5.5772
T0
M30
