G04 #@! TF.GenerationSoftware,KiCad,Pcbnew,(5.1.5-0-10_14)*
G04 #@! TF.CreationDate,2020-02-09T14:38:22-05:00*
G04 #@! TF.ProjectId,ButtonBoard,42757474-6f6e-4426-9f61-72642e6b6963,rev?*
G04 #@! TF.SameCoordinates,Original*
G04 #@! TF.FileFunction,Copper,L1,Top*
G04 #@! TF.FilePolarity,Positive*
%FSLAX46Y46*%
G04 Gerber Fmt 4.6, Leading zero omitted, Abs format (unit mm)*
G04 Created by KiCad (PCBNEW (5.1.5-0-10_14)) date 2020-02-09 14:38:22*
%MOMM*%
%LPD*%
G04 APERTURE LIST*
%ADD10R,1.700000X1.700000*%
%ADD11O,1.700000X1.700000*%
%ADD12C,2.000000*%
%ADD13C,0.250000*%
G04 APERTURE END LIST*
D10*
X78740000Y-140970000D03*
D11*
X76200000Y-140970000D03*
X73660000Y-140970000D03*
X71120000Y-140970000D03*
X68580000Y-140970000D03*
X66040000Y-140970000D03*
D12*
X46990000Y-141660000D03*
X46990000Y-137160000D03*
X53490000Y-141660000D03*
X53490000Y-137160000D03*
X125880000Y-137160000D03*
X125880000Y-141660000D03*
X119380000Y-137160000D03*
X119380000Y-141660000D03*
X133350000Y-141660000D03*
X133350000Y-137160000D03*
X139850000Y-141660000D03*
X139850000Y-137160000D03*
X155090000Y-137160000D03*
X155090000Y-141660000D03*
X148590000Y-137160000D03*
X148590000Y-141660000D03*
X217170000Y-141660000D03*
X217170000Y-137160000D03*
X223670000Y-141660000D03*
X223670000Y-137160000D03*
D13*
X46990000Y-141660000D02*
X53490000Y-141660000D01*
X119380000Y-141660000D02*
X83240000Y-141660000D01*
X83240000Y-141660000D02*
X80010000Y-138430000D01*
X76200000Y-138430000D02*
X73660000Y-140970000D01*
X80010000Y-138430000D02*
X76200000Y-138430000D01*
X119380000Y-141660000D02*
X125880000Y-141660000D01*
X71120000Y-140970000D02*
X71120000Y-142240000D01*
X71120000Y-142240000D02*
X72390000Y-143510000D01*
X131500000Y-143510000D02*
X133350000Y-141660000D01*
X72390000Y-143510000D02*
X131500000Y-143510000D01*
X133350000Y-141660000D02*
X139850000Y-141660000D01*
X148590000Y-141660000D02*
X144780000Y-145470000D01*
X144780000Y-145470000D02*
X69270000Y-145470000D01*
X68580000Y-144780000D02*
X68580000Y-140970000D01*
X69270000Y-145470000D02*
X68580000Y-144780000D01*
X148590000Y-141660000D02*
X155090000Y-141660000D01*
X68580000Y-147320000D02*
X66040000Y-144780000D01*
X211510000Y-147320000D02*
X68580000Y-147320000D01*
X217170000Y-141660000D02*
X211510000Y-147320000D01*
X66040000Y-144780000D02*
X66040000Y-140970000D01*
X217170000Y-141660000D02*
X223670000Y-141660000D01*
M02*
